Coordinates
version=1
nRows=12
nColumns=46
inDegrees=yes

Units are S.I. units (second, meters, Newtons, ...)
Angles are in degrees.

endheader
time	pelvis_tilt	pelvis_list	pelvis_rotation	pelvis_tx	pelvis_ty	pelvis_tz	bb_angle	bb_tx	bb_ty	bb_tz	hip_flexion_r	hip_adduction_r	hip_rotation_r	knee_angle_r	knee_angle_r_beta	ankle_angle_r	subtalar_angle_r	mtp_angle_r	crank_angle_r	hip_flexion_l	hip_adduction_l	hip_rotation_l	knee_angle_l	knee_angle_l_beta	ankle_angle_l	subtalar_angle_l	mtp_angle_l	crank_angle_l	lumbar_extension	lumbar_bending	lumbar_rotation	arm_flex_r	arm_add_r	arm_rot_r	elbow_flex_r	pro_sup_r	wrist_flex_r	wrist_dev_r	arm_flex_l	arm_add_l	arm_rot_l	elbow_flex_l	pro_sup_l	wrist_flex_l	wrist_dev_l
      2.50500000	    -21.29592418	      7.11091219	      9.73681111	      0.15824118	      1.14564086	     -0.19983686	      0.00000000	      0.50000000	      0.00000000	      0.25000000	     57.37165062	    -13.38395463	      4.08261729	     72.23235841	      1.26069248	    -13.35634371	    -14.81422890	      0.00000000	      0.00000000	     67.92436529	      6.58295706	      0.65560575	     53.96499116	      0.94186678	     16.36270446	     -3.86297136	      0.00000000	      0.00000000	    -59.52542124	     -5.01339191	    -10.01987862	     89.15463518	    -18.79484165	     33.90172572	     42.98175270	     34.67029682	      0.00000000	      0.00000000	     89.75921369	     -2.91952984	     25.19462036	     56.42192113	     24.40437070	      0.00000000	      0.00000000
      2.51000000	    -21.17913222	      6.99418314	      9.36609740	      0.15893771	      1.14321960	     -0.20075658	      0.00000000	      0.50000000	      0.00000000	      0.25000000	     58.63683824	    -13.23522202	      4.33807592	     75.04789853	      1.30983293	    -12.09366684	    -14.01364914	      0.00000000	      0.00000000	     66.66736382	      6.32050670	      0.56232146	     51.76643590	      0.90349475	     15.08167635	     -4.05962520	      0.00000000	      0.00000000	    -59.49850288	     -5.00113115	     -9.52961651	     89.10086678	    -19.30407145	     33.98092997	     43.70372227	     34.90416850	      0.00000000	      0.00000000	     89.74938327	     -2.99512714	     25.45947539	     56.51662004	     24.42970613	      0.00000000	      0.00000000
      2.51500000	    -20.99064296	      6.39092778	      8.79824558	      0.15986470	      1.14081047	     -0.20190467	      0.00000000	      0.50000000	      0.00000000	      0.25000000	     59.71256468	    -12.58284814	      4.27051902	     77.63522512	      1.35499029	    -11.01342685	    -13.70805865	      0.00000000	      0.00000000	     65.46693151	      5.60962200	      0.78711893	     49.83889325	      0.86985278	     14.03209508	     -3.87277014	      0.00000000	      0.00000000	    -59.41157212	     -4.83692956	     -8.43124335	     89.04575992	    -20.51335323	     34.90126667	     44.93205654	     35.56274251	      0.00000000	      0.00000000	     89.73914575	     -2.84542675	     25.70150197	     56.39232450	     24.45823399	      0.00000000	      0.00000000
      2.52000000	    -20.72334001	      5.85039092	      8.26584849	      0.16089321	      1.13850698	     -0.20265229	      0.00000000	      0.50000000	      0.00000000	      0.25000000	     60.71405902	    -11.93497596	      4.23850930	     80.19164554	      1.39960825	    -10.14959231	    -13.60740402	      0.00000000	      0.00000000	     64.13015054	      4.90371259	      0.92525420	     47.90140396	      0.83603722	     12.97887878	     -3.46826155	      0.00000000	      0.00000000	    -59.36057907	     -4.59188242	     -7.69196807	     89.04724343	    -20.46343637	     35.01972918	     45.15711843	     35.66714264	      0.00000000	      0.00000000	     89.72226042	     -2.97974346	     25.59970363	     56.26590129	     24.44652473	      0.00000000	      0.00000000
      2.52500000	    -20.41106626	      5.30422536	      7.66289459	      0.16221288	      1.13649878	     -0.20341169	      0.00000000	      0.50000000	      0.00000000	      0.25000000	     61.62647412	    -11.22488686	      4.21544330	     82.65224069	      1.44255373	     -9.13728901	    -13.41328841	      0.00000000	      0.00000000	     62.76065031	      4.04824471	      0.87405472	     46.08036800	      0.80425414	     11.88204321	     -2.82648660	      0.00000000	      0.00000000	    -59.36318446	     -4.34747830	     -6.90636059	     89.03618711	    -20.48959171	     35.21401360	     45.50686308	     35.80221727	      0.00000000	      0.00000000	     89.70997187	     -3.23040285	     25.65438348	     56.00552500	     24.42623670	      0.00000000	      0.00000000
      2.53000000	    -19.88601551	      4.65157921	      6.82518197	      0.16416795	      1.13458239	     -0.20427113	      0.00000000	      0.50000000	      0.00000000	      0.25000000	     62.31961902	    -10.32388399	      4.13357340	     85.08640517	      1.48503792	     -8.10957290	    -13.06268492	      0.00000000	      0.00000000	     61.45194021	      2.75844193	      0.37245349	     44.94974327	      0.78452102	     11.01942408	     -1.71444667	      0.00000000	      0.00000000	    -59.46960360	     -4.15690225	     -5.93573019	     89.03066307	    -20.49500330	     35.50822400	     45.93304413	     35.95945930	      0.00000000	      0.00000000	     89.69443604	     -3.54293653	     25.85019651	     55.56925233	     24.38818903	      0.00000000	      0.00000000
      2.53500000	    -19.62851051	      3.93447350	      6.11798692	      0.16569715	      1.13287313	     -0.20541793	      0.00000000	      0.50000000	      0.00000000	      0.25000000	     63.29311726	     -9.47294302	      3.97999217	     87.34843842	      1.52451785	     -7.37099064	    -12.96909949	      0.00000000	      0.00000000	     60.02403921	      1.82547491	      0.61038182	     43.10526851	      0.75232886	     10.14300628	     -1.06162465	      0.00000000	      0.00000000	    -59.37344121	     -3.77857505	     -4.93552058	     89.05746669	    -20.42971267	     35.74840240	     46.20849046	     36.06035295	      0.00000000	      0.00000000	     89.67265627	     -3.88796361	     25.92861007	     55.27099975	     24.36051387	      0.00000000	      0.00000000
      2.54000000	    -19.35324281	      3.24196632	      5.38121270	      0.16728539	      1.13135123	     -0.20685467	      0.00000000	      0.50000000	      0.00000000	      0.25000000	     64.26879856	     -8.61800098	      3.91684959	     89.56171272	      1.56314677	     -6.78069179	    -12.83163524	      0.00000000	      0.00000000	     58.55384056	      0.92471940	      0.88096128	     41.32947157	      0.72133536	      9.22862321	     -0.51612803	      0.00000000	      0.00000000	    -59.28853477	     -3.33872780	     -3.85803033	     89.05660676	    -20.28884604	     35.99394375	     46.45080003	     36.14624360	      0.00000000	      0.00000000	     89.64830933	     -4.26542593	     25.98936976	     54.96297619	     24.32706620	      0.00000000	      0.00000000
      2.54500000	    -19.10258122	      2.95255041	      4.81156682	      0.16892493	      1.13129535	     -0.20861550	      0.00000000	      0.50000000	      0.00000000	      0.25000000	     65.15429942	     -8.18478748	      4.17980086	     91.48194722	      1.59666119	     -5.65318362	    -11.67718412	      0.00000000	      0.00000000	     56.17803343	      0.79805355	      1.74703623	     37.92969948	      0.66199814	      7.44042699	     -1.63335695	      0.00000000	      0.00000000	    -59.30590644	     -3.10550853	     -3.03282934	     89.04243409	    -21.03967796	     36.90621618	     47.35019682	     36.50959556	      0.00000000	      0.00000000	     89.66389316	     -4.51780526	     27.23093101	     53.76343301	     24.32392173	      0.00000000	      0.00000000
      2.55000000	    -18.77464334	      2.27838210	      3.92253504	      0.17076806	      1.13081847	     -0.20996321	      0.00000000	      0.50000000	      0.00000000	      0.25000000	     65.98918937	     -7.18216541	      4.18868513	     93.35842342	      1.62941187	     -4.95816335	    -11.30282140	      0.00000000	      0.00000000	     54.42144283	     -0.22516006	      1.87462758	     35.91398737	      0.62681733	      6.29618835	     -1.15715140	      0.00000000	      0.00000000	    -59.33985906	     -2.80919701	     -1.77743614	     89.07392606	    -21.49283145	     37.82094591	     47.96938332	     36.82038172	      0.00000000	      0.00000000	     89.65076982	     -4.92282740	     27.94900990	     53.19082012	     24.43616258	      0.00000000	      0.00000000
      2.55500000	    -18.70824804	      1.42254678	      3.06020428	      0.17241406	      1.13019206	     -0.21147150	      0.00000000	      0.50000000	      0.00000000	      0.25000000	     67.07455404	     -6.09011925	      4.02886707	     95.08650442	      1.65957258	     -4.45752365	    -11.20776566	      0.00000000	      0.00000000	     52.96425083	     -1.34848566	      2.15075568	     33.94727234	      0.59249167	      5.16975178	     -0.57153316	      0.00000000	      0.00000000	    -59.14358768	     -2.33121188	     -0.58788003	     89.11657406	    -21.27810326	     38.07378973	     48.20141119	     36.90994022	      0.00000000	      0.00000000	     89.61200277	     -5.40278448	     27.97345160	     52.91364640	     24.44315831	      0.00000000	      0.00000000
      2.56000000	    -18.39916413	      1.03353782	      2.03608219	      0.17449582	      1.13103343	     -0.21273776	      0.00000000	      0.50000000	      0.00000000	      0.25000000	     67.88834967	     -5.16135869	      4.29170033	     96.64922317	      1.68684716	     -3.94859546	    -10.86936628	      0.00000000	      0.00000000	     50.84126792	     -2.37214945	      1.56373605	     31.41830124	      0.54835280	      3.66959099	      0.24209575	      0.00000000	      0.00000000	    -59.26154930	     -2.28082046	      0.43413678	     89.14709525	    -21.39115907	     38.71852147	     48.55828888	     37.09732884	      0.00000000	      0.00000000	     89.60380040	     -5.83629676	     29.08738615	     51.92226202	     24.48241867	      0.00000000	      0.00000000
